<!DOCTYPE svg PUBLIC "-//W3C//DTD SVG 1.1//EN" "http://www.w3.org/Graphics/SVG/1.1/DTD/svg11.dtd">
<svg xmlns="http://www.w3.org/2000/svg" viewBox="0 0 689 376">
<path fill="#fbfbfb" stroke="#fbfbfb" d="M389.177 95.239c-.135 9.809-1.877 14.761-5.192 14.761-.974 0-2.049-.562-2.389-1.25-3.928-7.944-10.457-12.68-7.761-5.629 3.197 8.364 3.41 9.978 1.506 11.42-2.443 1.852-2.436 1.853-5.667-1.142-3.023-2.804-4.851-2.577-2.567.318 7.984 10.119 25.098 30.268 25.666 30.216.4-.037 3.353-3.187 6.562-7s6.164-6.933 6.567-6.933c.402 0 3.176 2.899 6.165 6.442 4.57 5.42 5.947 6.452 8.672 6.5 4.882.087 7.746 2.864 5.506 5.34-1.605 1.773-1.604 1.938.026 2.85.951.532 1.729 1.808 1.729 2.836 0 4.258 1.094 5.182 3.107 2.623 1.041-1.323 1.893-2.898 1.893-3.499 0-.6.37-1.092.822-1.092.453 0 .688-2.206.524-4.902-.22-3.604.092-5.052 1.177-5.469 2.322-.891 1.749-3.419-.773-3.407-2.253.01-5.288-.505-11.642-1.975-6.022-1.393-5.82-4.373.529-7.808 8.11-4.387 6.56-5.983-3.842-3.955-5.891 1.148-6.374-2.975-1.085-9.278 5.468-6.517 7.771-10.206 6.37-10.206-1.667 0-6.22 2.961-12.112 7.877-5.55 4.631-8.831 1.154-5.983-6.338 1.763-4.635 1.917-7.206.433-7.206-.764 0-1.651.825-1.971 1.834-.32 1.008-1.001 1.833-1.514 1.833-.513 0-.933.675-.933 1.5s-.398 1.5-.883 1.5c-.486 0-1.119.9-1.407 2-1.315 5.029-6.707 1.456-6.716-4.45-.007-5.334-1.691-11.22-3.397-11.874-1.009-.388-1.378.538-1.42 3.563m-56.163 17.011a46494.107 46494.107 0 0 0-17.103 20.949l-3.013 3.699-2.449-2.129c-1.347-1.171-2.449-2.518-2.449-2.993 0-.475-1.54-2.531-3.422-4.57-1.883-2.038-4.343-4.77-5.468-6.071l-2.045-2.366-2.41 2.866c-1.326 1.576-9.295 11.415-17.71 21.865-18.986 23.578-22.483 27.871-27.195 33.39-2.062 2.415-3.75 4.778-3.75 5.251 0 .472 11.817.859 26.26.859h26.261l17.989-18.068c9.895-9.937 21.057-20.809 24.806-24.161l6.815-6.093 8.05 7.911c4.814 4.731 8.238 7.409 8.518 6.661.318-.849 2.897-1.25 8.033-1.25h7.565l-.612 8.667-.611 8.666 8.644 8.834 8.644 8.833h26.39c22.259 0 26.628.238 27.908 1.517 1.357 1.357-3.926 1.511-49.821 1.459l-51.339-.059-.31 3.542-.311 3.541 52.311.154c28.77.084 53.435.215 54.81.291 2.477.137 9.253 3.648 16 8.291l3.5 2.408-3.5-3.147c-1.925-1.731-5.3-4.065-7.5-5.186-5.611-2.861-10.5-6.679-10.5-8.2 0-.707-3.038-4.484-6.75-8.393-11.692-12.31-13.757-14.674-13.5-15.456.137-.419-.15-.762-.638-.762-.662 0-18.971-19.817-26.2-28.356-.399-.471-2.454 1.089-4.568 3.468a2647.164 2647.164 0 0 1-6.937 7.769l-3.093 3.444-14.907-18.337c-8.199-10.086-14.847-18.916-14.775-19.623.073-.708-.333-1.192-.901-1.076-.569.116-2.073-1.291-3.342-3.127-2.752-3.98-9.981-12.162-10.746-12.162-.297 0-6.88 7.763-14.629 17.25m5.216 6.275c-5.098 6.311-8.967 11.475-8.596 11.475.371 0 3.499-1.58 6.952-3.511l6.277-3.511 2.669 4.903 2.668 4.903 3.445-3.812 3.444-3.813 6.052 3.42c3.328 1.882 6.256 3.421 6.506 3.421s-4.126-5.625-9.726-12.5c-5.599-6.875-10.235-12.489-10.301-12.475-.066.014-4.291 5.189-9.39 11.5M288 142.685c-12.385 15.551-12.153 15.184-7.951 12.626 12.569-7.65 11.169-7.433 14.279-2.217l2.442 4.095 5.115-6.146c2.813-3.381 5.115-6.522 5.115-6.98 0-1.047-9.021-12.065-9.872-12.057-.346.003-4.453 4.808-9.128 10.679m35.159 19.845-23.993 23.53-28.5-.28c-15.676-.154-28.425-.002-28.333.338.092.34-.826 1.465-2.041 2.5-5.223 4.454-4.814 4.513 30.208 4.411l33-.096 15-14.724c8.25-8.099 18.26-17.856 22.244-21.684l7.244-6.96 16.823 16.718L381.633 183h5.184c6.732 0 6.59-.537-2.317-8.744l-7.5-6.911V150.89l-4.75.305c-4.725.303-4.749.323-4.558 3.728.191 3.418.176 3.408-9.518-6.25-5.34-5.32-10.005-9.673-10.366-9.673-.361 0-11.454 10.589-24.649 23.53m104.11-19.837c.973.254 2.323.237 3-.037.677-.274-.119-.481-1.769-.461-1.65.02-2.204.244-1.231.498m-25.519 7.762c-4.575 5.349-4.583 4.713.134 10.636l3.883 4.878 2.507-3.234 2.506-3.235 6.732 3.301 6.732 3.301-8.724-9.801c-4.799-5.391-9.016-9.898-9.372-10.016-.357-.118-2.335 1.759-4.398 4.17m-73.51 22.804c-10.582 10.593-19.24 19.503-19.24 19.8 0 .296 1.509.363 3.354.148 2.781-.325 5.985-3.026 18.738-15.799 8.461-8.475 15.815-15.408 16.341-15.408.527 0 5.752 4.725 11.613 10.5 8.986 8.855 11.148 10.5 13.805 10.5 1.732 0 3.149-.357 3.149-.792 0-.803-27.287-28.208-28.086-28.208-.238 0-9.091 8.667-19.674 19.259M430 159.378c0 .207.685.946 1.523 1.641 1.273 1.057 1.42.995.893-.378-.538-1.401-2.416-2.384-2.416-1.263M340 180c0 3.905.083 4 3.5 4s3.5-.095 3.5-4-.083-4-3.5-4-3.5.095-3.5 4m9 0c0 3.905.083 4 3.5 4s3.5-.095 3.5-4-.083-4-3.5-4-3.5.095-3.5 4m-8.58 6.349c-1.461 3.807-.021 7.151 3.08 7.151 4.439 0 4.669-7.808.244-8.317-1.74-.2-2.965.229-3.324 1.166M227.444 196.86c-8.268 3.604-8.603 3.903-8.411 7.491.364 6.768-.222 27.072-.743 25.757-2.665-6.725-5.304 23.131-3.306 37.406 1.904 13.598 4.622 17.357 14.832 20.511 8.756 2.704 11.239 2.454 3.119-.315-13.493-4.6-15.624-8.055-16.981-27.539-1.206-17.322.292-27.952 3.35-23.769.899 1.228 2.322 1.657 4.74 1.427l3.456-.329.294-6 .294-6h11.343l.176 3.5c.098 1.925.226 4.765.285 6.31.101 2.621.361 2.79 3.858 2.5l3.75-.31v-30l-3.698-.307-3.699-.308-.301 5.675-.302 5.675-5.708.132-5.708.133-.292-5.5-.292-5.5-3.754-.311c-6.493-.537-3.485-6.961 4.285-9.152 3.386-.955 8.539-4.057 6.469-3.895-.55.043-3.725 1.267-7.056 2.718m33.006 11.491c-15.619 7.087-10.269 29.149 7.069 29.149 20.826 0 22.04-28.799 1.272-30.181-3.116-.207-6.544.217-8.341 1.032m26.774 13.899.276 15.25 3.75.31 3.75.311v-4.561c0-6.493 3.556-6.519 8-.06 2.788 4.052 3.49 4.5 7.048 4.5 4.732 0 4.773-.25.975-5.974l-2.968-4.474 2.533-2.644c1.853-1.934 2.549-3.766 2.591-6.817.107-7.698-5.453-11.091-18.173-11.091h-8.058l.276 15.25m30.215-13.952c-.274.714-.372 7.577-.219 15.25l.28 13.952 3.75.31 3.75.311V207h-3.531c-1.973 0-3.752.573-4.03 1.298m11.945.144c-1.541 4.016-.113 5.048 7.405 5.352l7.268.295-7.556 9.205c-5.613 6.84-7.484 9.848-7.278 11.706l.277 2.5h26l.31-3.209.311-3.208-8.006-.292-8.006-.291 7.413-9c5.163-6.268 7.423-9.835 7.446-11.75L355 207h-12.531c-9.991 0-12.644.292-13.085 1.442m35.6.41c-10.984 5.837-10.732 22.179.421 27.244 14.547 6.607 28.823-7.171 21.843-21.081-3.564-7.104-14.695-10.185-22.264-6.163M393 222.56v15.561l3.75-.311 3.75-.31.5-7.769.5-7.769 6.807 8.019c5.659 6.666 7.304 8.019 9.75 8.019H421v-31H413.081l-.291 8.186-.29 8.187-6.5-8.128c-5.682-7.105-6.909-8.136-9.75-8.187L393 207v15.56m30.695-14.922c-.382.383-.695 1.97-.695 3.529 0 2.733.176 2.833 5 2.833h5v24h3.393c4.328 0 4.472-.48 3.994-13.303L439.989 214h10.138l-.314-3.25-.313-3.25-12.555-.278c-6.905-.154-12.868.034-13.25.416m28.529 14.58.276 15.282 11.75.282 11.75.281v4.135c0 2.275.273 3.862.607 3.528.335-.334.289-3.784-.101-7.667l-.709-7.059H460v-6.084l7.708.292c7.261.275 7.748.437 8.4 2.792l.693 2.5.099-2.691c.055-1.48-.393-2.996-.996-3.368-.675-.417-.886-2.457-.55-5.309.299-2.548.23-3.593-.155-2.323-.384 1.27-1.036 2.282-1.449 2.25-.413-.032-3.675-.059-7.25-.059-6.237 0-6.5-.099-6.5-2.458 0-2.374.265-2.468 7.75-2.75l7.75-.292v-6l-11.776-.282-11.776-.282.276 15.282m-188.995-7.549c-2.269.913-4.397 6.291-3.716 9.392 1.811 8.243 12.95 9.126 15.555 1.233 2.5-7.574-4.286-13.664-11.839-10.625M295 218.296v4.296l4.75-.546c4.343-.499 4.778-.794 5.08-3.437.397-3.478-1.052-4.573-6.08-4.594L295 214v4.296m72.635-2.223C361.938 220.553 365.693 231 373 231c4.355 0 8-3.873 8-8.5 0-7.233-7.659-10.916-13.365-6.427M227 245.704c-8.357 3.041-9.627 14.852-2.02 18.786 3.775 1.952 7.988 1.921 10.845-.08 3.339-2.339 1.108-5.068-2.311-2.827-4.975 3.259-11.342-1.538-10.021-7.551.977-4.449 8.13-7.009 11.149-3.99.724.724 1.435.57 2.323-.5 2.009-2.421-5.699-5.39-9.965-3.838m18.388.276c-7.748 3.131-8.347 15.44-.916 18.825 9.595 4.372 19.739-6.349 13.897-14.688-2.766-3.949-8.736-5.852-12.981-4.137m18.21-.244c-.329.328-.598 5.055-.598 10.504 0 8.898.178 9.872 1.75 9.565 1.443-.282 1.75-1.436 1.75-6.575 0-3.429.079-6.233.177-6.232.097.001 1.595 2.482 3.329 5.512 3.593 6.281 3.947 6.244 8.005-.832l2.97-5.178.01 6.823c.008 5.957.231 6.781 1.759 6.489 2.87-.55 3.187-19.812.325-19.812-1.407 0-2.968 1.768-5.286 5.988-4.039 7.353-3.917 7.353-7.939.035-3.156-5.739-4.973-7.567-6.252-6.287m47.615.732c-6.473 2.889-7.592 12.164-2.07 17.161 3.999 3.619 16.932 1.576 13.813-2.183-.866-1.043-1.591-.988-3.81.285-2.392 1.373-3.112 1.394-5.67.168-8.638-4.14-3.293-15.533 5.696-12.14 3.272 1.235 4.865-.15 2.683-2.333-2.139-2.138-7.015-2.577-10.642-.958m72.175-.52C373.102 250.262 376.329 266 387.5 266c5.273 0 7.5-1.978 7.5-6.661 0-3.19-.397-4.339-1.5-4.339-1.038 0-1.5 1.044-1.5 3.392 0 3.867-2.932 5.345-7.308 3.681-4.349-1.654-5.274-9.812-1.392-12.279 1.86-1.183 7.165-.929 8.5.406.933.933 1.468.932 2.407-.007 2.752-2.752-6.098-6.225-10.819-4.245m21 .032c-3.172 1.282-6.388 5.916-6.388 9.205 0 9.867 10.657 14.358 17.6 7.415 7.999-7.999-.685-20.873-11.212-16.62m59.84.25c-5.44 2.622-3.894 8.44 2.871 10.799 5.065 1.767 6.363 4.566 2.561 5.52-1.361.342-3.451.098-4.645-.541-2.933-1.57-5.71-.551-4.027 1.477 1.671 2.013 7.376 2.932 10.798 1.739 2.779-.968 2.842-.91 3.066 2.888.336 5.699-1.421 10.96-4.89 14.639-8.033 8.52-9.434 8.638-102.962 8.698-48.569.032-67.252.269-49 .622 77.201 1.493 138.823.009 147.258-3.546 8.368-3.528 12.988-13.023 10.888-22.373-.542-2.409-.558-4.152-.04-4.152 3.704 0-1.481-6.58-6.04-7.666-7.573-1.803-7.775-5.708-.267-5.162 5.226.379 6.903-1.574 2.717-3.166-3.274-1.245-5.357-1.188-8.288.224M289 256.044v10.044l7.25-.294c5.647-.229 7.25-.626 7.25-1.794 0-1.104-1.384-1.58-5.25-1.802-4.821-.278-5.25-.502-5.25-2.75 0-2.235.392-2.448 4.5-2.448 3.333 0 4.5-.389 4.5-1.5s-1.167-1.5-4.5-1.5c-4.133 0-4.5-.204-4.5-2.5 0-2.333.333-2.5 5-2.5 3.778 0 5-.367 5-1.5 0-1.19-1.444-1.5-7-1.5h-7v10.044m37.214-.306c.245 8.346.536 9.787 2.036 10.074 1.46.279 1.75-.422 1.75-4.239V257h9.885l.308 4.241c.224 3.094.78 4.332 2.057 4.574 1.573.298 1.75-.688 1.75-9.742 0-9.406-.132-10.073-2-10.073-1.667 0-2 .667-2 4v4h-10v-4c0-3.357-.327-4-2.036-4-1.929 0-2.021.515-1.75 9.738M348 256c0 9.333.133 10 2 10s2-.667 2-10-.133-10-2-10-2 .667-2 10m8 0c0 9.255.146 10 1.954 10 1.712 0 1.991-.819 2.25-6.601l.296-6.602 5.349 6.602c7.434 9.174 8.151 8.875 8.151-3.399 0-9.252-.146-10-1.952-10-1.697 0-1.992.819-2.25 6.25l-.298 6.25-5-6.242c-7.333-9.154-8.5-8.641-8.5 3.742m66 .073c0 9.057.177 10.039 1.75 9.732 1.458-.284 1.75-1.456 1.75-7.031v-6.689l2.241 2.707c1.233 1.49 3.708 4.614 5.5 6.944 5.05 6.566 6.207 5.506 6.545-5.998.269-9.152.167-9.738-1.704-9.738-1.751 0-2.026.776-2.286 6.433l-.296 6.433-5.259-6.433c-7.433-9.094-8.241-8.737-8.241 3.64m22-.029v10.044l7.25-.294c9.328-.378 10.536-2.995 1.75-3.794-4.857-.442-5.509-.763-5.579-2.75-.072-2.034.384-2.25 4.75-2.25 3.626 0 4.829-.374 4.829-1.5 0-1.105-1.154-1.5-4.383-1.5-3.882 0-4.439-.286-4.862-2.5-.461-2.415-.296-2.5 4.884-2.5 4.099 0 5.361-.353 5.361-1.5 0-1.19-1.444-1.5-7-1.5h-7v10.044m-199.363-5.538c-5.081 5.081-.198 14.076 6.489 11.954 4.883-1.55 6.68-8.516 3.045-11.805-2.283-2.066-7.535-2.148-9.534-.149m158.866.491c-.994 1.098-1.768 3.38-1.72 5.069.266 9.367 13.155 8.721 13.202-.661.029-5.854-7.543-8.76-11.482-4.408m71.576.586c.048 1.165.285 1.402.604.605.289-.722.253-1.585-.079-1.917-.332-.332-.568.258-.525 1.312m-151.337 20.542C321.796 273.214 321.117 285 323 285c.55 0 1-2.385 1-5.3s.533-5.832 1.183-6.483c1.607-1.607.703-2.292-1.441-1.092M244 279.557v5.558l4.25-.308 4.25-.307.093-4.299c.101-4.697-1.361-6.201-6.027-6.201-2.447 0-2.566.258-2.566 5.557m10.426-4.226c-.932 2.429-.01 8.987 1.324 9.425.889.292 1.25-1.042 1.25-4.614 0-4.932-1.472-7.683-2.574-4.811M259 279.5v5.5h4c2.2 0 4-.45 4-1s-1.35-1-3-1-3-.45-3-1 1.163-1 2.583-1c1.632 0 2.424-.46 2.149-1.25-.239-.687-1.401-1.214-2.583-1.171-1.182.044-2.149-.518-2.149-1.25 0-.816 1.181-1.329 3.059-1.329 1.785 0 2.802-.417 2.441-1-.34-.55-2.166-1-4.059-1H259v5.5m9 .083c0 4.03.348 5.464 1.25 5.153.688-.237 1.227-1.689 1.2-3.226l-.051-2.795 2.623 3.143c3.887 4.655 5.138 4.103 4.78-2.108-.322-5.593-1.972-6.977-2.802-2.351l-.5 2.785-2.28-3.092c-3.261-4.423-4.22-3.857-4.22 2.491m11.667-4.916c-.367.366-.667 2.841-.667 5.5V285h4c2.2 0 4-.45 4-1s-1.125-1-2.5-1-2.5-.45-2.5-1 .873-1 1.941-1 2.219-.45 2.559-1c.351-.567-.49-1-1.941-1-1.608 0-2.559-.557-2.559-1.5 0-.933.944-1.5 2.5-1.5 1.375 0 2.5-.45 2.5-1 0-1.106-6.275-1.392-7.333-.333m10.083.413c-2.668 1.554-2.092 3.965 1.25 5.226 3.925 1.482 3.869 3.118-.08 2.328-2.213-.443-2.964-.267-2.667.625.228.683 1.951 1.241 3.83 1.241 4.541 0 5.559-3.925 1.426-5.497-2.985-1.135-2.565-3.092.492-2.292 2.357.616 2.721-1.22.417-2.104-2.069-.794-2.581-.742-4.668.473m11.764.17c-.843 2.491.016 9.097 1.236 9.502.688.228 1.25-.298 1.25-1.169 0-2.011 2.597-2.075 3.362-.083.634 1.654 5.638 2.098 5.638.5 0-1.456 5.752-1.227 6.28.25.245.688.809.911 1.253.497.935-.873-3.439-10.747-4.761-10.747-.487 0-1.896 2.29-3.132 5.09-1.903 4.312-2.436 4.861-3.491 3.589-.843-1.015-.907-1.711-.198-2.149 1.724-1.065 1.189-4.385-.885-5.495-2.642-1.414-6.038-1.302-6.552.215m26.709.307c-4.686 3.282-1.738 10.102 4 9.256 3.574-.527 3.244-2.636-.386-2.466-2.495.117-3.358-.303-3.66-1.781-.486-2.383 2.236-4.532 4.869-3.844 2.325.608 2.65-1.241.372-2.115-2.264-.869-2.717-.786-5.195.95m8.777 3.907v5.465l7.439-.039c9.668-.051 12.887-3.295 5.904-5.95-2.837-1.078-2.146-3.33.741-2.413 1.054.334 1.916.158 1.916-.392 0-2.643-6.344-2.287-7.38.413-.625 1.628 1.882 4.452 3.951 4.452.786 0 1.429.386 1.429.858 0 .473-2.7.897-6 .944-5.76.082-8.412-1.32-3.75-1.982 2.585-.368 2.14-2.36-.5-2.241-.962.044-1.75-.518-1.75-1.25 0-.751 1.087-1.329 2.5-1.329 1.375 0 2.5-.45 2.5-1s-1.575-1-3.5-1H337v5.464m22 .036c0 3.025.45 5.5 1 5.5s1-.675 1-1.5.627-1.5 1.393-1.5 1.652.675 1.969 1.5c1.076 2.804 2.212 1.514 2.381-2.702.202-5.064-1.04-6.798-4.865-6.798-2.822 0-2.878.108-2.878 5.5m10 0v5.5h4c2.2 0 4-.45 4-1s-1.35-1-3-1-3-.45-3-1 1.163-1 2.583-1c1.632 0 2.424-.46 2.149-1.25-.239-.687-1.401-1.214-2.583-1.171-1.182.044-2.149-.518-2.149-1.25 0-.816 1.181-1.329 3.059-1.329 1.785 0 2.802-.417 2.441-1-.34-.55-2.166-1-4.059-1H369v5.5m11.4-4.735c-4.759 3.178-2.988 9.735 2.63 9.735 3.042 0 3.509-.339 3.786-2.75.174-1.512-.163-2.75-.75-2.75-.586 0-1.066.931-1.066 2.07 0 3.095-4.387 2.228-4.837-.957-.402-2.839 1.459-4.246 4.579-3.463 2.544.639 3.121-1.105.676-2.043-2.074-.796-3.664-.746-5.018.158m8.6 4.735c0 3.025.45 5.5 1 5.5s1-2.475 1-5.5-.45-5.5-1-5.5-1 2.475-1 5.5m5.655-3.671c-2.269 2.507-2.12 6.852.279 8.136 6.248 3.343 11.948-3.083 7.066-7.965-2.491-2.491-5.189-2.554-7.345-.171M405 279.5c0 3.025.45 5.5 1 5.5s1.018-1.462 1.041-3.25l.04-3.25 2.782 3.25c3.741 4.369 4.137 4.153 4.137-2.25 0-3.025-.45-5.5-1-5.5s-1.012 1.462-1.027 3.25l-.027 3.25-2.723-3.259c-3.693-4.42-4.223-4.136-4.223 2.259m14.618-4.785c-.393.393-1.598 2.713-2.678 5.154-1.995 4.511-1.87 6.461.277 4.314.651-.65 2.128-1.183 3.283-1.183 1.155 0 2.632.533 3.283 1.183 2.396 2.396 2.28-.125-.233-5.084-2.741-5.409-2.819-5.496-3.932-4.384M427 279.5v5.5h3.5c1.925 0 3.5-.45 3.5-1s-1.125-1-2.5-1c-2.296 0-2.5-.367-2.5-4.5 0-2.475-.45-4.5-1-4.5s-1 2.475-1 5.5m8 0v5.5h4c2.2 0 4-.45 4-1s-1.35-1-3-1-3-.45-3-1 1.163-1 2.583-1c1.624 0 2.428-.464 2.164-1.25-.23-.687-1.164-1.255-2.075-1.261-2.82-.017-2.33-1.971.578-2.305 4.23-.487 3.258-2.184-1.25-2.184h-4v5.5m10.051-4.061c-1.735 2.09-.668 4.368 2.406 5.14 3.633.911 3.215 2.805-.457 2.071-1.743-.349-3-.178-3 .406 0 1.499 2.672 2.243 5.502 1.533 3.637-.913 3.332-4.402-.501-5.738-3.285-1.146-3.092-3.332.201-2.287 1.451.46 1.906.257 1.588-.709-.644-1.954-4.246-2.215-5.739-.416M246 277.406c0 .912.7 1.224 1.989.887 1.094-.286 1.742-.919 1.441-1.407-.873-1.412-3.43-1.025-3.43.52m58 .761c0 1.311.563 1.87 1.667 1.656 2.475-.48 2.717-2.489.374-3.102-1.547-.405-2.041-.055-2.041 1.446m57-.167c0 1.333.667 2 2 2 2.373 0 2.684-2.523.418-3.393-2.294-.88-2.418-.809-2.418 1.393m35.488-.615c-2.233 1.633-1.536 5.033 1.11 5.413 2.501.359 4.666-1.947 3.842-4.094-.847-2.207-2.965-2.772-4.952-1.319m23.151 1.113c-.847 2.207-.862 2.169.861 2.169 1.698 0 1.842-.579.624-2.501-.675-1.064-.975-.997-1.485.332M315 279.441c0 .857.45 1.559 1 1.559s1-.423 1-.941-.45-1.219-1-1.559c-.55-.34-1 .084-1 .941M246 282c0 .55 1.125 1 2.5 1s2.5-.45 2.5-1-1.125-1-2.5-1-2.5.45-2.5 1m-3.736 8.718c1.52.229 3.77.223 5-.014 1.23-.237-.014-.425-2.764-.418-2.75.008-3.756.202-2.236.432m18.986-.029c.962.252 2.538.252 3.5 0 .962-.251.175-.457-1.75-.457s-2.712.206-1.75.457" fill-rule="evenodd"/>
<path fill="#caa34e" stroke="#caa34e" d="M389.275 100.548c-1.174 9.677-.904 9.07-4.422 9.953-2.392.6-2.96.133-5.982-4.919-4.17-6.972-5.085-7.065-3.292-.332 1.884 7.079 1.784 8.485-.699 9.814-1.738.93-2.639.751-5-.995-1.584-1.171-2.88-1.86-2.88-1.53 0 1.168 24.926 30.529 25.706 30.281.437-.14 3.447-3.306 6.69-7.037 3.243-3.731 6.19-6.783 6.549-6.783.36 0 3.294 3.169 6.52 7.043 5.03 6.039 6.236 6.974 8.451 6.561 1.421-.265 5.71-.78 9.53-1.144 8.15-.776 7.211-1.651-3.713-3.461-6.746-1.119-7.843-1.59-8.344-3.587-.791-3.151-.044-4.045 5.932-7.087 5.976-3.043 4.965-3.981-2.555-2.368-4.613.989-5.385.917-6.5-.608-1.428-1.953-1.672-4.98-.463-5.727 1.646-1.018 10.294-12.622 9.406-12.622-.507 0-3.985 2.289-7.728 5.087-5.953 4.45-7.097 4.953-9.143 4.021-2.703-1.232-2.878-2.996-.936-9.449 1.827-6.07.36-5.927-3.497.341-5.2 8.452-8.499 6.707-10.051-5.317-1.409-10.921-2.268-10.953-3.579-.135m-59.144 16.022c-9.553 11.839-17.494 21.392-17.647 21.228-.153-.164-3.502-4.123-7.441-8.798-3.94-4.675-7.547-8.5-8.017-8.5-.963 0-50.026 60.567-50.026 61.755 0 .421 11.501.586 25.559.367l25.558-.398 7.692-7.362A2338.9 2338.9 0 0 0 314 167c.275-.275 8.028-7.886 17.228-16.914l16.729-16.414 7.975 8.414c5.191 5.476 7.992 7.803 8.022 6.664.04-1.517 1.111-1.75 8.046-1.75h8v18.544l8.338 8.295 8.338 8.295 25.662.35c14.114.193 25.662.019 25.662-.385 0-1.112-41.019-47.099-42.011-47.099-.474 0-3.703 3.347-7.175 7.439-4.782 5.634-6.586 7.15-7.435 6.25-.616-.654-10.656-13.001-22.311-27.439-11.655-14.437-21.276-26.24-21.38-26.228-.103.012-8.004 9.708-17.557 21.548m7.002 3.009-10.184 12.501 7.499-4.116c8.349-4.582 8.706-4.542 11.697 1.32l2.116 4.147 3.119-3.715c3.808-4.536 3.754-4.535 10.92-.213 3.19 1.923 6.021 3.497 6.29 3.497.602 0-19.22-24.653-20.416-25.392-.471-.292-5.44 5.095-11.041 11.971m-49.899 23.666c-12.752 15.859-12.64 15.552-3.779 10.314l7.607-4.498 2.719 3.928c3.294 4.759 2.773 4.916 9.127-2.755l5.191-6.265-5.506-6.49-5.505-6.489-9.854 12.255m36.266 19.273-24 23.424-28.161.029-28.161.029-2.735 3.25-2.736 3.25 32.875.264 32.874.264 22.022-21.933 22.022-21.933 17.45 16.919C382.034 182.644 382.491 183 386.7 183c5.663 0 5.555-.303-3.2-9l-7.5-7.45V151h-4c-3.952 0-4 .045-4 3.731v3.731l-9.768-9.731c-5.372-5.352-9.985-9.71-10.25-9.684-.265.025-11.282 10.587-24.482 23.471m77.752-11.702-4.06 4.816 4.127 5.297 4.128 5.298 2.825-3.364 2.825-3.363 7.067 3.763 7.066 3.763-3.29-3.763C412.321 152.261 406.523 146 405.953 146c-.352 0-2.467 2.167-4.701 4.816m-73.306 23.132c-19.176 18.685-19.398 18.949-15.957 19 3.197.048 4.839-1.296 19.627-16.064l16.138-16.115 10.988 10.615c8.933 8.631 11.542 10.616 13.953 10.616 2.761 0 2.025-.931-10.659-13.5-7.494-7.425-13.854-13.5-14.134-13.5-.28 0-9.261 8.527-19.956 18.948M340 180c0 4.053.058 4.121 3.25 3.813 2.988-.288 3.25-.595 3.25-3.813s-.262-3.525-3.25-3.813c-3.192-.308-3.25-.24-3.25 3.813m9 0c0 4.053.058 4.121 3.25 3.813 2.988-.288 3.25-.595 3.25-3.813s-.262-3.525-3.25-3.813c-3.192-.308-3.25-.24-3.25 3.813m-9 9.5c0 3.333.167 3.5 3.5 3.5s3.5-.167 3.5-3.5-.167-3.5-3.5-3.5-3.5.167-3.5 3.5m9 0v3.5h109.392L455 189.5l-3.392-3.5H349v3.5M220 222v15h7v-12h13v12h7v-30h-7v12h-13v-12h-7v15m39.985-12.75c-14.615 7.408-9.076 28.179 7.515 28.179s22.13-20.771 7.515-28.179c-2.441-1.238-5.823-2.25-7.515-2.25-1.692 0-5.074 1.012-7.515 2.25m27.768-1.5c-.201.412-.296 7.05-.212 14.75l.152 14 3.653.31 3.654.311v-4.061c0-5.973 4.777-6.009 8.12-.06 2.087 3.712 2.562 4 6.612 4h4.364l-3.114-4.527-3.115-4.526 2.567-3.05c5.316-6.319 2.262-15.033-5.934-16.925-4.834-1.117-16.238-1.268-16.747-.222M318 221.937V237h7.053l-.276-14.75-.277-14.75-3.25-.313-3.25-.314v15.064m12-11.512v3.487l7.029.294 7.029.294-7.507 9C325.62 236.605 325.779 237 342 237h13v-5.916l-7.585-.292-7.584-.292 7.635-9.398c10.658-13.119 10.507-13.522-5.216-13.883l-12.25-.281v3.487m35.105-1.229c-13.95 7.473-8.788 27.926 7.107 28.156 9.881.143 16.288-5.699 16.288-14.852 0-12.07-12.466-19.159-23.395-13.304m28.562-1.529c-.367.366-.667 7.116-.667 15V237h7v-8c0-4.4.337-7.982.75-7.96.413.023 3.614 3.623 7.115 8 5.716 7.147 6.714 7.96 9.777 7.96h3.411l-.276-14.75-.277-14.75h-7l-.291 8.267-.29 8.266-7.019-8.516c-6.696-8.124-9.902-10.182-12.233-7.85M424 210.5c0 3.481.024 3.5 4.5 3.5h4.5v23h7v-23h4.5c4.476 0 4.5-.019 4.5-3.5V207h-25v3.5m28.698-2.865c-.384.384-.698 7.148-.698 15.032V237h24v-6h-16v-6h13v-6h-6.5c-6.267 0-6.5-.09-6.5-2.5 0-2.446.162-2.5 7.563-2.5h7.564l-.314-3.25-.313-3.25-10.552-.282c-5.803-.155-10.865.033-11.25.417m-191.365 8.941c-2.198 2.198-2.494 3.186-2.017 6.74 1.45 10.815 16.684 10.07 16.684-.816 0-7.735-9.157-11.434-14.667-5.924M295 218.5c0 4.448.039 4.5 3.389 4.5 5.124 0 8.374-3.03 6.846-6.383-1.03-2.261-1.807-2.617-5.714-2.617H295v4.5m72-2.5c-5.115 5.115-1.346 15 5.72 15 7.35 0 11.299-9.815 5.966-14.826-3.025-2.841-8.931-2.929-11.686-.174m-144.077 32.923c-7.372 7.372 1.428 20.426 10.718 15.899 3.179-1.55 4.791-4.633 1.745-3.34-4.201 1.784-6.951 1.648-9.651-.476-6.565-5.164-.302-15.14 7.481-11.917 3.451 1.43 5.036.299 2.341-1.671-3.42-2.501-9.332-1.797-12.634 1.505m20.827-1.843c-5.022 2.925-5.845 11.616-1.485 15.686 7.62 7.112 19.969-.467 16.734-10.27-1.857-5.625-9.953-8.5-15.249-5.416M263 255.5c0 7.778.272 9.5 1.5 9.5 1.183 0 1.506-1.429 1.527-6.75l.027-6.75 3.553 5.75c4.321 6.992 4.158 6.982 8.118.5l3.208-5.25.033 6.25c.027 4.874.364 6.25 1.534 6.25 1.228 0 1.5-1.722 1.5-9.5 0-11.235-1.074-12.08-5.399-4.249-4.722 8.552-4.468 8.515-8.802 1.277-5.579-9.315-6.799-8.781-6.799 2.972m26 0v9.5h7c4 0 7-.429 7-1 0-.55-2.475-1-5.5-1-5.444 0-5.5-.03-5.5-3 0-2.933.111-3 5-3 3.778 0 5-.367 5-1.5 0-1.136-1.23-1.5-5.066-1.5-4.903 0-5.057-.087-4.75-2.669.293-2.474.675-2.675 5.228-2.75 2.976-.049 5.079-.574 5.334-1.331.31-.922-1.438-1.25-6.663-1.25H289v9.5m19.923-6.577c-7.539 7.539 1.136 20.565 10.62 15.945 3.243-1.579 4.955-4.714 1.843-3.375-4.567 1.966-7.849 1.707-10.208-.803-5.333-5.677.152-14.419 7.402-11.797 4.099 1.482 5.841.619 2.977-1.475-3.42-2.501-9.332-1.797-12.634 1.505M327 255.5c0 7.778.272 9.5 1.5 9.5 1.083 0 1.5-1.111 1.5-4v-4h11v4c0 2.932.41 4 1.538 4 2.017 0 1.74-18.081-.288-18.752-.864-.287-1.25.848-1.25 3.669V254h-11v-4c0-2.889-.417-4-1.5-4-1.228 0-1.5 1.722-1.5 9.5m22 0c0 5.667.404 9.5 1 9.5s1-3.833 1-9.5-.404-9.5-1-9.5-1 3.833-1 9.5m8 0c0 8.005.249 9.5 1.585 9.5 1.319 0 1.529-1.093 1.25-6.502-.394-7.649-.298-7.704 3.87-2.217 4.918 6.474 8.463 9.971 9.174 9.052 1.144-1.48.083-19.487-1.125-19.084-.693.231-1.012 2.941-.859 7.309.155 4.441-.102 6.582-.714 5.942-.526-.55-3.273-3.812-6.105-7.25-2.832-3.437-5.583-6.25-6.112-6.25-.551 0-.964 4.073-.964 9.5m23.306-7.087c-5.893 5.069-2.634 15.684 5.269 17.167 5.35 1.004 8.925-1.337 8.925-5.843 0-4.623-1.819-5.006-2.5-.526-.681 4.479-5.666 5.214-9.483 1.397-5.896-5.896.106-14.603 7.998-11.602 3.421 1.3 5.439.165 2.945-1.659-3.077-2.25-9.946-1.693-13.154 1.066m22.444-1.333c-7.487 4.361-4.87 16.746 3.91 18.502 9.958 1.992 16.249-12.48 7.825-18-2.712-1.777-9.079-2.049-11.735-.502M422 255.5c0 7.645.284 9.5 1.454 9.5 1.098 0 1.527-1.639 1.75-6.694l.296-6.694 5.425 6.694c7.39 9.12 8.075 8.883 8.075-2.806 0-7.645-.284-9.5-1.454-9.5-1.099 0-1.527 1.642-1.75 6.714l-.296 6.715-5.336-6.715c-7.351-9.249-8.164-8.972-8.164 2.786m22 0v9.5h7c4 0 7-.429 7-1 0-.55-2.475-1-5.5-1-5.422 0-5.5-.042-5.5-2.945 0-2.797.236-2.961 4.672-3.25 6.715-.438 7.006-2.805.345-2.805-4.993 0-5.14-.082-4.833-2.669.293-2.474.675-2.675 5.228-2.75 2.976-.049 5.079-.574 5.334-1.331.31-.922-1.438-1.25-6.663-1.25H444v9.5m18.655-7.671c-3.389 3.744-1.262 7.392 5.348 9.172 4.591 1.236 5.654 2.502 3.889 4.63-1.287 1.55-5.462 1.511-9.142-.086-1.235-.535-1.75-.309-1.75.77 0 1.987 6.029 3.967 9.457 3.107 7.001-1.758 6.347-9.618-.914-10.98-4.767-.894-6.612-3.187-4.064-5.05 2.256-1.65 3.979-1.752 6.526-.389 1.296.693 2.086.659 2.562-.112 1.927-3.117-9.158-4.106-11.912-1.062m-216.638 1.457c-7.515 3.802-2.822 15.388 5.397 13.325 6.142-1.542 7.169-10.224 1.552-13.128-3.454-1.786-3.789-1.796-6.949-.197m159 0c-7.736 3.914-2.446 16.009 5.742 13.13 6.114-2.151 6.513-10.604.626-13.286-3.069-1.399-3.307-1.393-6.368.156M323 273.059c0 .582.45.781 1 .441s1-.816 1-1.059-.45-.441-1-.441-1 .477-1 1.059m-78.807 6.627c.291 4.569.464 4.829 3.392 5.115 3.415.333 6.088-1.903 4.788-4.006-.439-.711-.815-2.193-.836-3.294-.029-1.588-.823-2.066-3.844-2.315l-3.808-.314.308 4.814M255.3 280c0 3.025.187 4.262.416 2.75.229-1.512.229-3.988 0-5.5s-.416-.275-.416 2.75m3.895-.25c.292 4.555.439 4.763 3.555 5.063 1.826.176 3.25-.152 3.25-.75 0-.584-1.125-1.063-2.5-1.063-3.445 0-3.235-2.756.25-3.284l2.75-.416-2.75-.15c-1.651-.09-2.75-.723-2.75-1.584 0-.796 1.223-1.618 2.75-1.85 2.178-.33 1.959-.447-1.055-.566l-3.805-.15.305 4.75m9.425-.214c.148 5.616 1.374 7.269 1.395 1.881l.015-3.917 3.447 4 3.448 4-.123-5.5c-.076-3.443-.273-4.285-.525-2.25-.5 4.023-1.225 4.071-3.777.25-2.813-4.212-4.019-3.734-3.88 1.536M280 280v5h3.5c1.925 0 3.5-.45 3.5-1s-1.387-1-3.083-1c-3.643 0-3.538-2.09.157-3.123 2.389-.667 2.384-.679-.324-.777-3.968-.144-3.564-2.872.5-3.377 3.2-.397 3.192-.405-.5-.563L280 275v5m9.667-4.333c-1.395 1.394-.573 3.419 1.833 4.515 3.277 1.493 3.183 2.818-.2 2.818-2.003 0-2.409.291-1.573 1.127.636.636 2.246.846 3.7.481 3.681-.924 3.387-4.128-.502-5.484-3.289-1.147-3.12-3.67.188-2.805 1.038.272 1.887.086 1.887-.413 0-1.043-4.335-1.238-5.333-.239M302 280.059c0 3.172.379 4.825 1.016 4.431.559-.346.758-1.047.441-1.559-.316-.512.366-.931 1.515-.931 1.15 0 2.35.675 2.666 1.5.317.825.994 1.5 1.504 1.5.549 0 .525-.754-.06-1.847-.663-1.24-.642-2.193.064-2.899 2.145-2.145-.053-5.254-3.713-5.254H302v5.059m10.86-.476c-1.115 2.521-1.775 4.835-1.467 5.143.308.308.844-.179 1.19-1.083.793-2.066 4.76-2.139 6.437-.119 2.222 2.677 2.141.861-.174-3.903-2.794-5.752-3.456-5.756-5.986-.038m9.14-.142c0 2.443.45 4.719 1 5.059.616.381 1-1.323 1-4.441 0-2.782-.45-5.059-1-5.059s-1 1.998-1 4.441m5.035-2.507c-2.325 4.344.84 8.816 5.425 7.665 3.572-.896 3.161-2.12-.71-2.109-2.668.008-3.31-.417-3.587-2.377-.407-2.874 1.494-4.332 4.671-3.583 1.475.348 2.097.168 1.691-.49-1.128-1.825-6.369-1.199-7.49.894M337 280v5h3.5c1.925 0 3.5-.45 3.5-1s-1.125-1-2.5-1c-3.154 0-3.358-2.696-.25-3.294l2.25-.434-2.25-.136c-3.2-.194-2.802-2.92.5-3.42 2.212-.335 2.016-.446-1-.566L337 275v5m9.667-4.333c-1.515 1.515-.481 3.502 2.333 4.483 3.933 1.371 3.83 2.85-.2 2.85-2.373 0-2.909.291-2.073 1.127.636.636 2.246.846 3.7.481 3.735-.938 3.38-4.131-.614-5.523-3.464-1.208-2.966-2.619 1.187-3.364 2.204-.395 2.135-.465-.583-.585-1.696-.075-3.384.164-3.75.531m12.365 4.583c.028 4.58.201 5.027 1.36 3.5 1.688-2.223 3.242-2.226 4.483-.008.536.958 1.316 1.4 1.733.983.417-.417.258-1.259-.353-1.87-.804-.804-.811-1.594-.026-2.851 1.803-2.887.239-5.004-3.698-5.004H359l.032 5.25m10.163-.5c.292 4.555.439 4.763 3.555 5.063 1.826.176 3.25-.152 3.25-.75 0-.584-1.125-1.063-2.5-1.063-3.445 0-3.235-2.756.25-3.284l2.75-.416-2.75-.15c-1.651-.09-2.75-.723-2.75-1.584 0-.796 1.223-1.618 2.75-1.85 2.178-.33 1.959-.447-1.055-.566l-3.805-.15.305 4.75m10.005-3.55c-3.313 3.313.604 9.568 5.26 8.399 2.469-.619 3.802-4.599 1.54-4.599-.55 0-1 .675-1 1.5 0 2.135-3.737 1.861-4.926-.362-1.563-2.921.905-5.611 4.354-4.745 1.795.45 2.518.328 2.097-.353-.879-1.422-5.851-1.314-7.325.16m9.8 3.241c0 2.443.45 4.719 1 5.059.616.381 1-1.323 1-4.441 0-2.782-.45-5.059-1-5.059s-1 1.998-1 4.441m5.2-3.241c-3.299 3.299.602 9.568 5.231 8.407 3.714-.932 5.106-4.138 3.117-7.174-1.742-2.659-6.255-3.326-8.348-1.233m10.8 3.241c0 2.443.45 4.719 1 5.059.598.37 1-.878 1-3.108v-3.725l3.458 3.916 3.459 3.917.041-5.25c.023-2.887-.408-5.25-.958-5.25s-1 1.385-1 3.077v3.076l-2.589-3.076c-3.5-4.16-4.411-3.879-4.411 1.364m12.609-.421c-1.784 4.457-2.119 7.461-.529 4.73.561-.962 2.1-1.75 3.42-1.75 1.32 0 2.859.788 3.42 1.75 1.563 2.684 1.268.308-.556-4.467-2.043-5.35-3.69-5.425-5.755-.263M427 280v5h3.5c1.925 0 3.5-.45 3.5-1s-1.125-1-2.5-1c-2.25 0-2.5-.4-2.5-4 0-2.2-.45-4-1-4s-1 2.25-1 5m8.195-.25c.283 4.403.515 4.774 3.177 5.078 1.579.181 3.357-.157 3.95-.75.771-.771.166-1.078-2.122-1.078-4.031 0-4.399-2.686-.45-3.284l2.75-.416-2.75-.15c-1.651-.09-2.75-.723-2.75-1.584 0-.796 1.223-1.618 2.75-1.85 2.178-.33 1.959-.447-1.055-.566l-3.805-.15.305 4.75m9.472-4.083c-1.515 1.515-.481 3.502 2.333 4.483 3.916 1.365 3.813 2.634-.25 3.082l-3.25.359 2.835.834c5.511 1.622 7.423-3.426 2.068-5.462-3.21-1.22-3.134-3.336.097-2.718 1.375.263 2.5.09 2.5-.384 0-1.008-5.355-1.173-6.333-.194M246 277.5c0 1.128.702 1.539 2.25 1.32 1.238-.176 2.25-.77 2.25-1.32s-1.012-1.144-2.25-1.32c-1.548-.219-2.25.192-2.25 1.32m57.923-1.323c-.796 3.365-.587 3.823 1.739 3.823 1.822 0 2.395-.464 2.15-1.739-.273-1.418-3.621-3.213-3.889-2.084M361 278c0 1.333.667 2 2 2s2-.667 2-2-.667-2-2-2-2 .667-2 2m34.384-.558c-.304.792-.396 2.255-.205 3.25.486 2.524 6.154 2.533 6.64.01.717-3.725-5.121-6.684-6.435-3.26M314.71 279c-.39 1.493-.03 2 1.419 2 1.631 0 1.771-.319.871-2-.589-1.1-1.227-2-1.419-2-.191 0-.583.9-.871 2m104.929-.502c-.893 2.327-.832 2.502.861 2.502 1.683 0 1.873-.863.624-2.834-.675-1.064-.975-.997-1.485.332M246 281.43c0 1.021.903 1.57 2.583 1.57 3.133 0 2.79-2.348-.411-2.82-1.443-.212-2.172.208-2.172 1.25" fill-rule="evenodd"/>
<path fill="#517546" stroke="#517546" d="M330.368 116.89c-9.277 11.537-17.133 21.007-17.457 21.044-.323.036-3.923-3.963-8-8.887-4.076-4.924-7.636-8.943-7.911-8.931-.275.012-11.589 13.829-25.143 30.703L247.215 181.5l25.616.267 25.615.268 18.527-18.279c10.19-10.053 21.341-20.961 24.781-24.24l6.254-5.961 7.996 7.949c4.398 4.372 7.996 7.397 7.996 6.723 0-.867 2.348-1.227 8-1.227h8v18.544l8.288 8.245 8.289 8.246 25.641-.268 25.641-.267-20.47-23c-11.259-12.65-20.799-23.115-21.199-23.256-.401-.141-3.617 3.136-7.147 7.284-6.113 7.18-6.501 7.455-8.121 5.756-.936-.981-10.797-13.034-21.913-26.784-11.117-13.75-20.563-25.132-20.992-25.294-.43-.162-8.372 9.146-17.649 20.684m6.349 2.812c-9.397 11.462-12.208 15.608-8.491 12.527 1.392-1.155 13.729-8.229 14.35-8.229.211 0 1.348 1.912 2.527 4.25 1.178 2.338 2.321 4.446 2.538 4.685.218.239 2.089-1.219 4.16-3.24l3.764-3.676 6.863 4.011c3.775 2.206 6.991 3.885 7.145 3.73.386-.385-20.561-26.186-21.561-26.558-.441-.164-5.523 5.461-11.295 12.5m-51.05 24.948c-5.958 7.435-10.678 13.673-10.488 13.862.19.19 3.613-1.648 7.608-4.083 8.785-5.357 8.122-5.339 11.333-.314l2.62 4.1 5.736-7.099 5.736-7.099-5.281-6.509c-2.904-3.579-5.539-6.478-5.856-6.441-.316.036-5.45 6.149-11.408 13.583m38.277 17.906L300.516 186H243.5l-2.793 3.5-2.792 3.5h64.838l22.612-22.088 22.613-22.088 16.844 16.588L381.665 182h9.788l-7.726-7.772-7.727-7.772V151h-3.94c-3.825 0-3.948.108-4.25 3.726l-.31 3.725-10.064-9.669-10.064-9.67-23.428 23.444m77.392-12.277c-4.603 5.722-4.603 5.722 1.091 12.221l3.504 4 2.619-3.266 2.62-3.266 7.396 3.876c6.301 3.302 7.14 3.54 5.665 1.607-2.89-3.787-17.696-20.289-18.231-20.319-.275-.015-2.374 2.301-4.664 5.147m-60.669 26.388c-.367.366-.667 1.941-.667 3.5 0 2.481.373 2.833 3 2.833 2.762 0 3-.278 3-3.5 0-3.409-3.107-5.06-5.333-2.833m9 0c-.367.366-.667 1.941-.667 3.5 0 2.481.373 2.833 3 2.833 2.762 0 3-.278 3-3.5 0-3.409-3.107-5.06-5.333-2.833M340 189.5c0 3.222.238 3.5 3 3.5s3-.278 3-3.5-.238-3.5-3-3.5-3 .278-3 3.5m9 0v3.5h54.059c42.958 0 53.914-.257 53.351-1.25-.389-.687-1.619-2.262-2.733-3.5l-2.026-2.25H349v3.5m-85.521 18.432C245.745 212.169 249.365 237 267.716 237c19.114 0 21.181-26.484 2.284-29.273-1.925-.285-4.859-.192-6.521.205m104.176.494c-7.549 2.756-11.643 9.492-10.258 16.876 2.655 14.152 23.881 16.367 29.748 3.104 5.501-12.437-6.487-24.727-19.49-19.98M220 222.5V237h7v-12h13v12h7v-29h-7v11h-13v-11h-7v14.5m68 0V237h3.5c3.417 0 3.5-.095 3.5-4 0-3.737.189-4 2.867-4 2.237 0 3.449.879 5.514 4 2.247 3.395 3.174 4 6.133 4 4.226 0 4.231-.056.507-5.469l-2.978-4.329 2.432-1.593c3.046-1.996 4.225-7.505 2.499-11.673-1.871-4.516-5.56-5.936-15.424-5.936H288v14.5m30 0V237h7v-29h-7v14.5m12-12c0 2.444.167 2.5 7.5 2.5 4.125 0 7.5.237 7.5.527 0 .29-3.375 4.495-7.5 9.345-5.236 6.156-7.5 9.62-7.5 11.473V237h25v-6H338.943l7.529-9.096c4.761-5.753 7.528-9.979 7.528-11.5V208h-24v2.5m63 12V237h6.922l.289-8.606.289-8.606 7 8.584c5.68 6.964 7.519 8.587 9.75 8.605L420 237v-29h-5.922l-.289 8.684-.289 8.684-7-8.683c-6.202-7.693-7.371-8.684-10.25-8.684L393 208v14.5m31-12c0 2.296.367 2.5 4.5 2.5h4.5v24h7v-24h4.5c4.133 0 4.5-.204 4.5-2.5V208h-25v2.5m29 12V237h22v-6h-15v-6h13v-6h-6.783c-6.762 0-6.783-.009-6.665-2.75.116-2.724.191-2.753 7.783-3.042 7.395-.282 7.665-.379 7.665-2.75V208h-22v14.5m-188.643-8.508C255.575 217.536 258.063 231 267.5 231c8.18 0 11.548-9.106 5.577-15.077-3.002-3.002-4.981-3.44-8.72-1.931M295 217.868V223h3.929c9.52 0 9.616-8.447.11-9.722l-4.039-.541v5.131m75-4.159c-5.033 1.851-7.222 8.027-4.625 13.048 4.935 9.544 19.698 2.077 15.575-7.878-1.779-4.295-6.836-6.682-10.95-5.17M224.831 247.53c-5.553 3.015-5.542 13.414.019 16.39 4.07 2.178 15.029-.023 11.371-2.284-.596-.368-1.365-.211-1.711.348-1.11 1.795-7.379 1.147-9.51-.984-6.078-6.078 1.414-16.06 9.005-11.997 1.253.67 2.079.67 2.494-.002 1.61-2.605-7.473-3.75-11.668-1.471m18.37.954c-4.231 3.56-4.585 10.223-.746 14.061 3.538 3.539 10.277 3.451 13.909-.181 8.488-8.489-3.964-21.62-13.163-13.88M264 255.5c0 5.667.404 9.5 1 9.5.573 0 1.006-3.092 1.014-7.25l.013-7.25 3.672 6.194c4.22 7.12 4.102 7.126 8.49-.465l3.311-5.729.294 7.25c.433 10.7 2.206 8.893 2.206-2.25 0-11.277-.673-11.633-5.71-3.019-2.085 3.564-4.085 6.489-4.445 6.5-.361.01-2.367-2.906-4.458-6.481-2.091-3.575-4.159-6.5-4.595-6.5-.435 0-.792 4.275-.792 9.5m26 0v9.5h6.5c3.667 0 6.5-.436 6.5-1 0-.55-2.475-1-5.5-1H292v-7h5.059c3.118 0 4.822-.384 4.441-1-.34-.55-2.616-1-5.059-1-4.268 0-4.441-.117-4.441-3 0-2.974.049-3 5.559-3 3.451 0 5.325-.379 4.941-1-.34-.55-3.291-1-6.559-1H290v9.5m20.888-8c-8.387 4.558-4.648 17.5 5.056 17.5 3.969 0 8.12-2.224 6.277-3.364-.596-.368-1.365-.211-1.711.348-1.274 2.062-7.505 1.112-10.167-1.55-5.927-5.927 2.491-15.988 9.609-11.485.799.506 1.872.66 2.385.343 1.34-.829-3.376-3.222-6.337-3.217-1.375.003-3.675.644-5.112 1.425m16.112 8c0 5.667.404 9.5 1 9.5.55 0 1-2.025 1-4.5V256h12v4.5c0 2.475.45 4.5 1 4.5.596 0 1-3.833 1-9.5s-.404-9.5-1-9.5c-.55 0-1 1.8-1 4v4h-12v-4c0-2.2-.45-4-1-4-.596 0-1 3.833-1 9.5m22 0c0 5.667.404 9.5 1 9.5s1-3.833 1-9.5-.404-9.5-1-9.5-1 3.833-1 9.5m8 0c0 11.102 1.771 12.966 2.206 2.322l.294-7.177 5.793 7.177c3.186 3.948 6.224 7.178 6.75 7.178.542 0 .957-4.119.957-9.5 0-11.143-1.773-12.95-2.206-2.25l-.294 7.25-5.863-7.25c-3.224-3.988-6.262-7.25-6.75-7.25-.488 0-.887 4.275-.887 9.5m24.077-6.911c-8.699 7.319.402 20.002 11.341 15.804 1.772-.68 2.307-8.393.582-8.393-.55 0-1 1.575-1 3.5 0 3.417-.095 3.5-4 3.5-7.431 0-10.931-7.897-5.686-12.826 2.523-2.37 7.563-2.897 9.469-.991.651.651 1.528.839 1.949.419 1.257-1.258-2.874-3.602-6.346-3.602-2.019 0-4.388.972-6.309 2.589m21.118.048c-6.912 6.406-3.186 16.363 6.123 16.363 12.373 0 13.351-17.028 1.072-18.674-3.541-.475-4.532-.157-7.195 2.311M423 255.5c0 11.006 1.765 13.002 2.206 2.495l.294-7.006 5.5 6.954c7.415 9.376 8 9.197 8-2.443 0-5.667-.404-9.5-1-9.5-.571 0-1 3-1 7 0 3.85-.337 6.995-.75 6.99-.413-.006-3.225-3.14-6.25-6.965-3.025-3.824-5.837-6.97-6.25-6.989-.413-.02-.75 4.239-.75 9.464m22 0v9.5h6.5c3.667 0 6.5-.436 6.5-1 0-.55-2.475-1-5.5-1H447v-3.5c0-3.481.024-3.5 4.5-3.5 2.475 0 4.5-.45 4.5-1s-2.025-1-4.5-1c-4.333 0-4.5-.111-4.5-3 0-2.974.049-3 5.559-3 3.451 0 5.325-.379 4.941-1-.34-.55-3.291-1-6.559-1H445v9.5m18.605-8.201c-3.706 2.71-1.744 6.959 4.196 9.088 4.356 1.561 5.247 2.275 5 4.007-.347 2.429-6.924 3.579-9.282 1.622-.873-.725-1.556-.765-1.958-.115-.86 1.391 2.689 3.099 6.439 3.099 9.503 0 9.584-7.822.109-10.532-2.892-.827-3.609-1.523-3.609-3.5 0-2.286.349-2.463 4.75-2.405 4.744.063 6.156-.809 3.168-1.956-2.65-1.017-6.936-.68-8.813.692m-219.431 3.015c-4.656 4.957-1.517 12.686 5.152 12.686 7.005 0 10.4-8.71 5.039-12.927-3.474-2.733-7.486-2.638-10.191.241m159 0c-4.656 4.957-1.517 12.686 5.152 12.686 6.833 0 10.045-7.72 5.219-12.545-3.149-3.15-7.488-3.209-10.371-.141M248.5 275.681c1.1.303 2.372 1.061 2.826 1.685.546.749.689.625.422-.366-.223-.825-1.494-1.583-2.826-1.685-1.91-.145-1.999-.068-.422.366m6.786 3.819c.008 2.75.202 3.756.432 2.236.229-1.52.223-3.77-.014-5-.237-1.23-.425.014-.418 2.764m7.464-3.838c.688.278 1.813.278 2.5 0 .688-.277.125-.504-1.25-.504s-1.937.227-1.25.504m6.425 3.838c.102 4.68.148 4.765.717 1.332l.608-3.668 2.5 3.391c3.278 4.445 3.612 4.327 3.701-1.305l.074-4.75-.637 3.952-.638 3.951-3.216-3.951-3.217-3.952.108 5m10.825.167c0 2.566.27 4.396.6 4.066.33-.33.6-2.179.6-4.11 0-3.027.364-3.565 2.65-3.916 2.345-.36 2.276-.425-.6-.557-3.224-.149-3.25-.112-3.25 4.517m9.345-3.124c-.326.849-.311 1.824.031 2.167.343.343.624-.089.624-.96s.563-1.81 1.25-2.088c.979-.395.972-.521-.031-.583-.705-.043-1.548.615-1.874 1.464m12.83 3.207.174 4.75.388-4.354c.371-4.163.515-4.336 3.273-3.931 1.586.233 2.657.055 2.378-.396-.278-.45-1.829-.819-3.447-.819-2.866 0-2.937.12-2.766 4.75m21.111-.25c.008 2.75.202 3.756.432 2.236.229-1.52.223-3.77-.014-5-.237-1.23-.425.014-.418 2.764m4.586-2.75c-1.193 1.522-1.177 1.601.128.608.825-.629 2.4-1.364 3.5-1.634 1.9-.467 1.893-.498-.128-.608-1.17-.064-2.745.672-3.5 1.634m9.827-1c-.582 1.04-.757 8.641-.186 8.07.49-.49 1.306-8.82.864-8.82-.142 0-.448.337-.678.75m3.114-.067c.721.289 1.584.253 1.916-.079.332-.332-.258-.568-1.312-.525-1.165.048-1.402.285-.604.604m21.687.22c2.086.463 2.952 1.221 2.843 2.488-.11 1.288.156 1.51.908.758 1.616-1.616-.997-4.171-4.123-4.031-2.541.115-2.529.141.372.785m10.25-.241c.688.278 1.813.278 2.5 0 .688-.277.125-.504-1.25-.504s-1.937.227-1.25.504m6.821.909c-.864.865-1.542 2.327-1.508 3.25.047 1.245.289 1.12.937-.486.48-1.19 1.689-2.639 2.686-3.219.998-.58 1.284-1.069.635-1.086-.648-.016-1.885.677-2.75 1.541m15.301.179c-1.234 1.574-1.201 1.616.323.423.932-.729 2.732-1.179 4-1 2.733.388 3.639 4.068 1.632 6.632-1.193 1.524-1.151 1.557.423.323 2.016-1.582 2.302-5.176.55-6.928-1.752-1.752-5.346-1.466-6.928.55m11.128-.191c0 .857.457 1.276 1.016.931.559-.346.758-1.047.441-1.559-.857-1.387-1.457-1.129-1.457.628m7.232 1.441c0 1.925.206 2.712.457 1.75.252-.962.252-2.538 0-3.5-.251-.962-.457-.175-.457 1.75m6.26-1.901c-.448.773-.428 1.051.046.62.472-.43 1.428.245 2.125 1.5.696 1.254 1.282 1.805 1.302 1.222.075-2.267-2.602-4.844-3.473-3.342m19.258-.437c.688.278 1.813.278 2.5 0 .688-.277.125-.504-1.25-.504s-1.937.227-1.25.504m-92.671 1.921c.048 1.165.285 1.402.604.605.289-.722.253-1.585-.079-1.917-.332-.332-.568.258-.525 1.312m-32.911 2.366c-.585 1.678-.851 3.051-.591 3.051.675 0 2.562-5.195 2.067-5.69-.227-.227-.891.961-1.476 2.639M408 278.378c0 .207.788.995 1.75 1.75 1.586 1.243 1.621 1.208.378-.378-1.307-1.666-2.128-2.195-2.128-1.372M436.232 281c0 1.925.206 2.712.457 1.75.252-.962.252-2.538 0-3.5-.251-.962-.457-.175-.457 1.75m9.501-1.876c.679.684 1.486.991 1.793.683.308-.308-.247-.867-1.233-1.243-1.425-.542-1.54-.428-.56.56M247 279.383c0 .211 1.111.596 2.47.856 1.358.26 2.232.087 1.941-.383-.512-.829-4.411-1.246-4.411-.473m15.813.3c.721.289 1.584.253 1.916-.079.332-.332-.258-.568-1.312-.525-1.165.048-1.402.285-.604.604m21 0c.721.289 1.584.253 1.916-.079.332-.332-.258-.568-1.312-.525-1.165.048-1.402.285-.604.604m23.523.884c-.331.862-.204 1.965.281 2.45.511.511.883-.151.883-1.567 0-2.839-.32-3.082-1.164-.883m33.477-.884c.721.289 1.584.253 1.916-.079.332-.332-.258-.568-1.312-.525-1.165.048-1.402.285-.604.604m32 0c.721.289 1.584.253 1.916-.079.332-.332-.258-.568-1.312-.525-1.165.048-1.402.285-.604.604m33.382 1.817c.02 1.65.244 2.204.498 1.231.254-.973.237-2.323-.037-3-.274-.677-.481.119-.461 1.769m32.618-1.817c.721.289 1.584.253 1.916-.079.332-.332-.258-.568-1.312-.525-1.165.048-1.402.285-.604.604M294.429 282c0 1.295.338 1.633.985.986.648-.648.648-1.324 0-1.972-.647-.647-.985-.309-.985.986m23.602-1.5c0 .55.436 1.675.969 2.5.533.825.969 1.05.969.5s-.436-1.675-.969-2.5c-.533-.825-.969-1.05-.969-.5m33.398 1.5c0 1.295.338 1.633.985.986.648-.648.648-1.324 0-1.972-.647-.647-.985-.309-.985.986M327 281.902c0 1.038 1.902 2.541 2.466 1.948.183-.192-.297-.93-1.067-1.639-.769-.71-1.399-.849-1.399-.309m37 .039c0 .518.445 1.216.989 1.552.566.35.734-.051.393-.941-.665-1.732-1.382-2.049-1.382-.611m30-.039c0 1.038 1.902 2.541 2.466 1.948.183-.192-.297-.93-1.067-1.639-.769-.71-1.399-.849-1.399-.309m24.762-.195c1.244.239 3.044.23 4-.02s-.062-.446-2.262-.435c-2.2.011-2.982.216-1.738.455M250.5 283c-.34.55-.141 1 .441 1s1.059-.45 1.059-1-.198-1-.441-1-.719.45-1.059 1m129.233.124c.679.684 1.486.991 1.793.683.308-.308-.247-.867-1.233-1.243-1.425-.542-1.54-.428-.56.56M412 283c0 .55.477 1 1.059 1s.781-.45.441-1-.816-1-1.059-1-.441.45-.441 1" fill-rule="evenodd"/>
<path fill="#052944" stroke="#052944" d="M330.448 117.011c-9.321 11.529-17.263 20.968-17.648 20.975-.385.008-3.921-3.811-7.858-8.486-3.936-4.675-7.467-8.5-7.847-8.5-.682 0-48.286 58.527-48.928 60.155-.184.465 1.456.845 3.644.845h3.977l20.271-25.5c11.148-14.025 20.607-25.5 21.019-25.5.941 0 10.922 11.88 10.922 13 0 .674-9.088 12.234-11.006 14-.299.275-4.564 5.45-9.478 11.5s-9.403 11.331-9.975 11.735c-.573.404 1.213.741 3.968.75 3.691.011 5.303-.446 6.125-1.735.614-.963 9.609-12.156 19.991-24.875 15.637-19.158 29.155-35.888 38.479-47.621 1.551-1.952 1.943-1.599 12 10.822 5.718 7.062 11.296 14.049 12.396 15.527 1.1 1.478 10.287 12.859 20.416 25.292L409.332 182h8.836l-3.014-3.75c-1.658-2.062-6.411-7.8-10.562-12.75s-7.538-9.45-7.525-10c.012-.55 2.052-3.25 4.533-6l4.511-5 2.448 2.81c1.346 1.545 8.796 9.983 16.556 18.75L439.223 182h8.846l-20.698-23.25c-11.384-12.787-20.962-23.326-21.285-23.419-.322-.093-3.429 3.17-6.903 7.25-3.474 4.08-6.624 7.399-7 7.375-.376-.024-9.908-11.521-21.183-25.548-11.275-14.027-21.198-26.146-22.052-26.931-1.376-1.266-3.477.953-18.5 19.534M323.715 163l-23.506 23h-55.817L241 189.5l-3.392 3.5h64.934l8.979-9.073c4.938-4.99 15.195-14.969 22.793-22.175l13.814-13.102 16.697 16.675L381.521 182l4.99-.047 4.989-.047-7.75-7.304-7.75-7.304v-16.419l-3.75.311c-3.513.29-3.782.549-4.25 4.092l-.5 3.783-9.48-9.533c-5.214-5.242-9.777-9.532-10.139-9.532-.363 0-11.237 10.35-24.166 23M340 180c0 2.667.333 3 3 3s3-.333 3-3-.333-3-3-3-3 .333-3 3m9 0c0 2.667.333 3 3 3s3-.333 3-3-.333-3-3-3-3 .333-3 3m-8.616 7.442c-1.09 2.841.092 5.053 2.875 5.374 2.535.293 2.741.049 2.741-3.25 0-3.149-.296-3.566-2.531-3.566-1.393 0-2.781.649-3.085 1.442m9.535-1.192c-.608 1.87-.25 6.069.543 6.373.571.218 24.77.28 53.775.137l52.737-.26-3.038-3.25-3.037-3.25h-50.45c-27.747 0-50.486.113-50.53.25M220 222.5V237h7v-12h12.9l.3 5.75c.297 5.685.337 5.754 3.55 6.063l3.25.314V208h-7v11h-13v-11h-7v14.5m38.898-12.23c-4.706 3.144-7.118 8.141-6.563 13.594 1.781 17.473 28.549 17.473 30.33 0 .907-8.908-5.742-15.864-15.165-15.864-3.746 0-6.156.636-8.602 2.27M288 222.403V237h2.943c2.746 0 2.962-.283 3.25-4.25.469-6.49 4.522-6.632 8.975-.314 2.751 3.903 3.713 4.564 6.64 4.564h3.422l-1.768-2.75a260.5 260.5 0 0 0-3.104-4.707c-1.177-1.724-1.013-2.293 1.38-4.792 3.789-3.954 3.775-9.692-.032-13.501-2.546-2.548-3.444-2.775-12.227-3.097l-9.479-.346v14.596m30 .097V237h6v-29h-6v14.5m12-12c0 2.444.167 2.5 7.5 2.5 4.125 0 7.5.271 7.5.603 0 .331-3.375 4.647-7.5 9.591-4.769 5.716-7.5 9.866-7.5 11.397V237h25v-2.5c0-2.458-.133-2.5-8-2.5-4.4 0-8-.293-8-.651 0-.358 3.375-4.804 7.5-9.881C357.119 208.4 356.986 208 342 208h-12v2.5m35.034-.748c-9.698 4.892-9.728 20.21-.05 25.385 10.499 5.614 23.021-1.347 23.012-12.791-.009-11.476-12.068-18.09-22.962-12.594M394 222.5V237h5.922l.289-8.675.289-8.674 7.3 8.674c5.514 6.553 7.9 8.675 9.75 8.675H420v-29h-6v8.5c0 8.573-.573 10.014-2.657 6.678C407.427 216.907 398.68 208 396.437 208H394v14.5m30-12c0 2.296.367 2.5 4.5 2.5h4.5v24h7v-24h4.5c4.133 0 4.5-.204 4.5-2.5V208h-25v2.5m29 12V237h22v-2.458c0-2.374-.265-2.468-7.75-2.75l-7.75-.292-.31-3.203-.31-3.203 6.81-.297c6.149-.268 6.84-.511 7.123-2.5.294-2.062-.122-2.222-6.5-2.5l-6.813-.297-.313-3.25-.314-3.25h8.064c7.934 0 8.063-.04 8.063-2.5V208h-22v14.5m-190.344-8.367c-1.014.589-2.435 2.488-3.159 4.219-4.722 11.302 10.779 19.015 16.02 7.971 3.913-8.247-5.042-16.736-12.861-12.19m32.011-.466c-.367.366-.667 2.616-.667 5V223h4.8c5.484 0 7.2-1.231 7.2-5.165 0-3.876-8.5-7.002-11.333-4.168m72.256 2.256c-7.076 7.077.087 18.685 9.355 15.161C385.06 227.746 382.386 213 373 213c-2.152 0-4.082.928-6.077 2.923" fill-rule="evenodd"/>
</svg>